<?xml version="1.0" encoding="UTF-8"?>
<svg id="Layer_2" data-name="Layer 2" xmlns="http://www.w3.org/2000/svg" xmlns:xlink="http://www.w3.org/1999/xlink" viewBox="0 0 346.39 101.06">
  <defs>
    <style>
      .cls-1 {
        fill: url(#linear-gradient);
      }
    </style>
    <linearGradient id="linear-gradient" x1="0" y1="50.53" x2="346.39" y2="50.53" gradientUnits="userSpaceOnUse">
      <stop offset="0" stop-color="#424242"/>
      <stop offset="1" stop-color="#595959"/>
    </linearGradient>
  </defs>
  <g id="Layer_1-2" data-name="Layer 1">
    <path class="cls-1" d="M121.25,13.39h19.63v7.53h-19.63v6.47c0,1.41.11,2.72.32,3.94.21,1.22.58,2.29,1.09,3.2.52.91,1.22,1.63,2.11,2.15.89.52,2.04.77,3.45.77,2.02,0,3.69-.63,5.03-1.9,1.34-1.27,2.33-2.93,2.99-5l6.54,3.38c-1.36,3.61-3.31,6.36-5.84,8.23-2.53,1.88-5.42,2.81-8.65,2.81-5.21,0-9.05-1.55-11.54-4.64-2.49-3.1-3.73-7.58-3.73-13.44V6.78h8.23v6.61ZM156.92,36.33c1.5.89,3.31,1.34,5.42,1.34,1.22,0,2.57-.2,4.05-.6,1.48-.4,2.97-1.28,4.47-2.64l5.35,5.35c-1.78,1.78-3.87,3.1-6.26,3.94-2.39.84-5,1.27-7.81,1.27-2.44,0-4.71-.38-6.83-1.13-2.11-.75-3.94-1.82-5.49-3.2-1.55-1.38-2.76-3.06-3.62-5.03-.87-1.97-1.3-4.17-1.3-6.61s.42-4.66,1.27-6.65c.84-1.99,2.03-3.71,3.55-5.14s3.34-2.53,5.45-3.31,4.41-1.16,6.9-1.16c1.83,0,3.61.25,5.35.74,1.74.49,3.28,1.2,4.64,2.11,1.36.91,2.46,2.04,3.31,3.38.84,1.34,1.27,2.87,1.27,4.61s-.32,3.18-.95,4.33-1.52,2.06-2.67,2.74-2.51,1.16-4.08,1.44c-1.57.28-3.29.42-5.17.42h-9.92c.56,1.64,1.6,2.91,3.1,3.8ZM167.09,25.35c.82-.28,1.23-.87,1.23-1.76,0-1.08-.62-1.94-1.87-2.57-1.24-.63-2.71-.95-4.4-.95-2.11,0-3.95.46-5.52,1.37-1.57.92-2.62,2.36-3.13,4.33h10.62c1.22,0,2.24-.14,3.06-.42ZM201.88,36.36c1.5-.68,2.93-1.7,4.29-3.06l5.14,5.7c-2.35,2.2-4.67,3.75-6.97,4.64-2.3.89-4.86,1.34-7.67,1.34-2.49,0-4.78-.39-6.9-1.16-2.11-.77-3.93-1.88-5.45-3.31-1.52-1.43-2.72-3.13-3.59-5.1-.87-1.97-1.3-4.15-1.3-6.54s.43-4.57,1.3-6.54,2.06-3.67,3.59-5.1,3.34-2.53,5.45-3.31,4.41-1.16,6.9-1.16c2.67,0,5.16.37,7.46,1.13s4.5,2.02,6.61,3.8l-4.93,5.98c-1.31-1.22-2.73-2.08-4.26-2.57s-3.13-.74-4.82-.74c-1.27,0-2.44.19-3.52.56-1.08.38-2.02.93-2.81,1.65-.8.73-1.43,1.62-1.9,2.67s-.7,2.26-.7,3.62.23,2.57.7,3.62,1.1,1.95,1.9,2.67c.8.73,1.74,1.28,2.81,1.65,1.08.38,2.25.56,3.52.56,1.92,0,3.64-.34,5.14-1.02ZM227.45,13.64c1.66-.59,3.29-.88,4.89-.88,2.53,0,4.78.42,6.75,1.27s3.65,2,5.03,3.48,2.44,3.25,3.17,5.31c.73,2.06,1.09,4.32,1.09,6.75v14.78h-8.23v-14.78c0-2.86-.73-5.11-2.18-6.75-1.45-1.64-3.52-2.46-6.19-2.46s-4.74.77-6.33,2.32c-1.59,1.55-2.39,4.06-2.39,7.53v14.14h-8.23V3.4h8.23v13.09c1.27-1.31,2.73-2.26,4.4-2.85ZM116.82,80.49c0-2.44-.47-4.44-1.41-6.02-.94-1.57-2.46-2.36-4.57-2.36s-3.62.67-4.54,2-1.37,3.2-1.37,5.59v16.47h-8.23v-16.47c0-2.39-.45-4.26-1.34-5.59-.89-1.34-2.39-2-4.5-2s-3.65.79-4.61,2.36c-.96,1.57-1.44,3.58-1.44,6.02v15.69h-8.23v-14.64c0-1.13.02-2.27.07-3.45.05-1.17.19-2.23.42-3.17.7-3.33,2.25-5.89,4.64-7.67,2.39-1.78,5.44-2.67,9.15-2.67,2.3,0,4.32.48,6.05,1.44,1.74.96,3.05,2.29,3.94,3.98.89-1.69,2.2-3.01,3.94-3.98s3.75-1.44,6.05-1.44c3.71,0,6.77.89,9.18,2.67,2.42,1.78,3.95,4.34,4.61,7.67.19.94.31,1.99.35,3.17.05,1.17.07,2.32.07,3.45v14.64h-8.23v-15.69ZM138.56,61.14h-8.23v-7.04h8.23v7.04ZM138.56,96.18h-8.23v-30.96h8.23v30.96ZM153.97,74.65c-1.5,1.64-2.25,3.89-2.25,6.75v14.78h-8.23v-15.13c0-2.39.38-4.6,1.13-6.61.75-2.02,1.85-3.75,3.31-5.21s3.21-2.59,5.28-3.41,4.43-1.23,7.11-1.23,4.98.41,7.07,1.23c2.09.82,3.85,1.96,5.28,3.41,1.43,1.45,2.52,3.19,3.27,5.21.75,2.02,1.13,4.22,1.13,6.61v15.13h-8.23v-14.78c0-2.86-.75-5.11-2.25-6.75-1.5-1.64-3.61-2.46-6.33-2.46s-4.76.82-6.26,2.46ZM215.46,55.23v24.2c0,2.86-.45,5.37-1.34,7.53s-2.11,3.96-3.66,5.42c-1.55,1.45-3.38,2.56-5.49,3.31-2.11.75-4.39,1.13-6.82,1.13s-4.7-.38-6.79-1.13c-2.09-.75-3.91-1.83-5.45-3.24-1.55-1.41-2.77-3.1-3.66-5.07-.89-1.97-1.34-4.2-1.34-6.68s.4-4.57,1.2-6.54c.8-1.97,1.94-3.66,3.41-5.07,1.48-1.41,3.26-2.51,5.35-3.31,2.09-.8,4.42-1.2,7-1.2,1.69,0,3.38.3,5.07.91,1.69.61,3.12,1.59,4.29,2.95v-13.23h8.23ZM189.99,84.33c.47,1.06,1.1,1.95,1.9,2.67.8.73,1.74,1.28,2.81,1.65,1.08.38,2.23.56,3.45.56s2.44-.21,3.52-.63c1.08-.42,2.03-1,2.85-1.72s1.47-1.62,1.94-2.67.7-2.22.7-3.48c0-1.41-.23-2.65-.7-3.73-.47-1.08-1.11-1.97-1.94-2.67-.82-.7-1.77-1.23-2.85-1.58-1.08-.35-2.25-.53-3.52-.53s-2.37.19-3.45.56c-1.08.38-2.02.93-2.81,1.65-.8.73-1.43,1.62-1.9,2.67s-.7,2.26-.7,3.62.23,2.57.7,3.62ZM221.33,70.39c.87-1.29,2.01-2.37,3.41-3.24,1.41-.87,2.99-1.51,4.75-1.94s3.53-.63,5.31-.63c2.67,0,5.31.35,7.92,1.06,2.6.7,4.87,1.83,6.79,3.38l-4.64,5.56c-1.36-.98-2.93-1.69-4.71-2.11s-3.59-.63-5.42-.63c-.84,0-1.64.06-2.39.18-.75.12-1.43.29-2.04.53-.61.23-1.09.54-1.44.92-.35.37-.53.82-.53,1.34,0,.7.35,1.18,1.06,1.44.7.26,1.57.39,2.6.39h6.26c1.78,0,3.41.15,4.89.46,1.48.3,2.76.82,3.83,1.55,1.08.73,1.92,1.68,2.53,2.85.61,1.17.91,2.63.91,4.36,0,1.83-.42,3.42-1.27,4.78-.84,1.36-1.98,2.5-3.41,3.41s-3.11,1.61-5.03,2.08c-1.92.47-3.96.7-6.12.7-2.96,0-5.88-.4-8.76-1.2-2.88-.8-5.52-2.3-7.91-4.5l5.28-5.7c1.5,1.36,3.21,2.39,5.14,3.1s3.99,1.06,6.19,1.06c2.06,0,3.84-.29,5.31-.88s2.22-1.51,2.22-2.78c0-.7-.4-1.17-1.2-1.41-.8-.23-1.85-.35-3.17-.35h-4.85c-1.55,0-3.08-.11-4.61-.32-1.52-.21-2.9-.63-4.12-1.27-1.22-.63-2.2-1.56-2.96-2.78-.75-1.22-1.13-2.84-1.13-4.86,0-1.74.43-3.25,1.3-4.54ZM265.27,88.16c1.5.89,3.31,1.34,5.42,1.34,1.22,0,2.57-.2,4.05-.6,1.48-.4,2.97-1.28,4.47-2.64l5.35,5.35c-1.78,1.78-3.87,3.1-6.26,3.94-2.39.84-5,1.27-7.81,1.27-2.44,0-4.71-.38-6.83-1.13-2.11-.75-3.94-1.82-5.49-3.2-1.55-1.38-2.76-3.06-3.62-5.03s-1.3-4.17-1.3-6.61.42-4.66,1.27-6.65c.84-1.99,2.03-3.71,3.55-5.14s3.34-2.53,5.45-3.31,4.41-1.16,6.9-1.16c1.83,0,3.61.25,5.35.74,1.74.49,3.28,1.2,4.64,2.11,1.36.91,2.46,2.04,3.31,3.38.84,1.34,1.27,2.87,1.27,4.61s-.32,3.18-.95,4.33-1.52,2.06-2.67,2.74-2.51,1.16-4.08,1.44c-1.57.28-3.29.42-5.17.42h-9.92c.56,1.64,1.6,2.91,3.1,3.8ZM275.44,77.18c.82-.28,1.23-.87,1.23-1.76,0-1.08-.62-1.94-1.87-2.57-1.24-.63-2.71-.95-4.4-.95-2.11,0-3.95.46-5.52,1.37-1.57.92-2.62,2.36-3.13,4.33h10.62c1.22,0,2.24-.14,3.06-.42ZM309.56,65.15c1.71.38,3.18.96,4.4,1.76l-3.31,6.97c-1.83-1.13-3.85-1.69-6.05-1.69-2.53,0-4.48.81-5.84,2.43-1.36,1.62-2.04,3.88-2.04,6.79v14.78h-8.23v-14.56c0-2.58.35-4.91,1.06-7,.7-2.09,1.74-3.87,3.1-5.35,1.36-1.48,3.04-2.63,5.03-3.45,1.99-.82,4.28-1.23,6.86-1.23,1.64,0,3.32.19,5.03.56ZM336.26,94.63c-.75.47-1.55.87-2.39,1.2-.84.33-1.7.57-2.57.74-.87.16-1.68.25-2.43.25-2.53,0-4.84-.39-6.93-1.16-2.09-.77-3.88-1.88-5.38-3.31-1.5-1.43-2.66-3.13-3.48-5.1-.82-1.97-1.23-4.15-1.23-6.54s.45-4.66,1.34-6.65c.89-1.99,2.11-3.69,3.66-5.1,1.55-1.41,3.37-2.49,5.45-3.24,2.09-.75,4.35-1.13,6.79-1.13s4.87.37,7,1.13c2.13.75,3.96,1.85,5.49,3.31s2.71,3.26,3.55,5.42c.84,2.16,1.27,4.64,1.27,7.46v14.28h-8.16v-3.24c-.56.66-1.22,1.22-1.97,1.69ZM320.92,84.33c.47,1.06,1.1,1.95,1.9,2.67.8.73,1.74,1.28,2.81,1.65,1.08.38,2.23.56,3.45.56s2.44-.18,3.52-.53,2.03-.88,2.85-1.58c.82-.7,1.47-1.6,1.94-2.67.47-1.08.7-2.32.7-3.73,0-1.27-.23-2.43-.7-3.48s-1.11-1.95-1.94-2.67-1.77-1.3-2.85-1.72c-1.08-.42-2.25-.63-3.52-.63s-2.37.19-3.45.56c-1.08.38-2.02.93-2.81,1.65-.8.73-1.43,1.62-1.9,2.67s-.7,2.26-.7,3.62.23,2.57.7,3.62ZM35.41,86.37l.03-36.73c0-8.53,7.48-14.3,15.55-14.4,11.56-.15,19.67-9.83,19.79-20.85C70.88,5.82,78.47-.19,86.18,0c8.49.21,14.82,7.14,14.83,15.07.01,8.88-6.82,15.26-15.61,15.39-11.24.16-19.69,9.38-19.7,20.41l-.03,35.18c0,8.52-6.77,14.84-14.91,15.01-7.84.16-15.35-5.96-15.34-14.68ZM65.68,14.52C65.38,7.09,59.36.12,51.36.12H14.31C5.9.12-.13,7.63,0,15.53c.13,7.88,6.28,14.75,14.61,14.77l37.76.07c8.32-1.3,13.61-7.93,13.3-15.84Z"/>
  </g>
</svg>