<?xml version="1.0" encoding="UTF-8"?>
<svg id="Layer_2" data-name="Layer 2" xmlns="http://www.w3.org/2000/svg" xmlns:xlink="http://www.w3.org/1999/xlink" viewBox="0 0 317.51 90.43">
  <defs>
    <style>
      .cls-1 {
        fill: url(#linear-gradient);
      }
    </style>
    <linearGradient id="linear-gradient" x1="0" y1="45.21" x2="317.51" y2="45.21" gradientUnits="userSpaceOnUse">
      <stop offset="0" stop-color="#5b2b78"/>
      <stop offset="1" stop-color="#c61f64"/>
    </linearGradient>
  </defs>
  <g id="Layer_1-2" data-name="Layer 1">
    <path class="cls-1" d="M107.22,11.3h17.78v6.82h-17.78v5.86c0,1.27.1,2.46.29,3.57s.52,2.07.99,2.9c.47.83,1.11,1.48,1.91,1.94.81.47,1.85.7,3.12.7,1.83,0,3.34-.57,4.56-1.72,1.21-1.15,2.11-2.65,2.71-4.52l5.92,3.06c-1.23,3.27-2.99,5.76-5.29,7.45-2.29,1.7-4.9,2.55-7.84,2.55-4.72,0-8.2-1.4-10.45-4.21-2.25-2.8-3.38-6.86-3.38-12.17V5.31h7.45v5.99ZM139.52,32.07c1.36.81,2.99,1.21,4.91,1.21,1.1,0,2.32-.18,3.66-.54s2.69-1.16,4.05-2.39l4.84,4.84c-1.61,1.61-3.51,2.8-5.67,3.57-2.17.76-4.52,1.15-7.07,1.15-2.21,0-4.27-.34-6.18-1.02-1.91-.68-3.57-1.65-4.97-2.9-1.4-1.25-2.5-2.77-3.28-4.56s-1.18-3.78-1.18-5.99.38-4.21,1.15-6.02,1.84-3.36,3.22-4.65,3.03-2.29,4.94-2.99,3.99-1.05,6.24-1.05c1.66,0,3.27.22,4.84.67,1.57.45,2.97,1.08,4.2,1.91,1.23.83,2.23,1.85,2.99,3.06.77,1.21,1.15,2.6,1.15,4.17s-.29,2.88-.86,3.92c-.57,1.04-1.38,1.87-2.42,2.48-1.04.62-2.27,1.05-3.69,1.31-1.42.26-2.98.38-4.68.38h-8.98c.51,1.49,1.44,2.63,2.8,3.44ZM148.73,22.13c.74-.26,1.12-.79,1.12-1.59,0-.98-.56-1.75-1.69-2.33-1.12-.57-2.45-.86-3.98-.86-1.91,0-3.58.41-5,1.24-1.42.83-2.37,2.14-2.83,3.92h9.62c1.1,0,2.03-.13,2.77-.38ZM180.24,32.1c1.36-.61,2.66-1.54,3.89-2.77l4.65,5.16c-2.12,2-4.23,3.4-6.31,4.21-2.08.81-4.4,1.21-6.94,1.21-2.25,0-4.33-.35-6.25-1.05-1.91-.7-3.56-1.7-4.94-2.99s-2.47-2.84-3.25-4.62-1.18-3.76-1.18-5.92.39-4.14,1.18-5.93,1.87-3.32,3.25-4.62,3.03-2.29,4.94-2.99c1.91-.7,3.99-1.05,6.25-1.05,2.42,0,4.67.34,6.75,1.02,2.08.68,4.08,1.83,5.99,3.44l-4.46,5.41c-1.19-1.1-2.47-1.88-3.85-2.33-1.38-.45-2.83-.67-4.36-.67-1.15,0-2.21.17-3.19.51s-1.83.84-2.55,1.5c-.72.66-1.29,1.46-1.72,2.42-.43.96-.64,2.05-.64,3.28s.21,2.32.64,3.28c.43.96,1,1.76,1.72,2.42.72.66,1.57,1.16,2.55,1.5.98.34,2.04.51,3.19.51,1.74,0,3.29-.31,4.65-.92ZM203.41,11.52c1.51-.53,2.98-.8,4.43-.8,2.29,0,4.33.38,6.12,1.15s3.3,1.82,4.56,3.15c1.25,1.34,2.21,2.94,2.87,4.81.66,1.87.99,3.91.99,6.12v13.38h-7.46v-13.38c0-2.59-.66-4.63-1.97-6.12-1.32-1.49-3.19-2.23-5.61-2.23s-4.29.7-5.73,2.1c-1.44,1.4-2.17,3.67-2.17,6.82v12.81h-7.45V2.25h7.45v11.85c1.15-1.19,2.47-2.05,3.98-2.58ZM109.57,72.07c0-2.21-.42-4.02-1.27-5.45s-2.23-2.14-4.14-2.14-3.28.61-4.11,1.82-1.24,2.9-1.24,5.07v14.91h-7.46v-14.91c0-2.17-.4-3.85-1.21-5.07s-2.17-1.82-4.08-1.82-3.3.71-4.17,2.14c-.87,1.42-1.31,3.24-1.31,5.45v14.21h-7.45v-13.25c0-1.02.02-2.06.06-3.12s.17-2.02.38-2.87c.64-3.02,2.04-5.33,4.21-6.94,2.17-1.61,4.93-2.42,8.28-2.42,2.08,0,3.91.44,5.48,1.31s2.76,2.07,3.57,3.6c.81-1.53,2-2.73,3.57-3.6,1.57-.87,3.4-1.31,5.48-1.31,3.36,0,6.13.81,8.31,2.42,2.19,1.61,3.58,3.93,4.17,6.94.17.85.28,1.81.32,2.87s.06,2.1.06,3.12v13.25h-7.45v-14.21ZM129.27,54.55h-7.46v-6.37h7.46v6.37ZM129.27,86.28h-7.46v-28.03h7.46v28.03ZM143.22,66.78c-1.36,1.49-2.04,3.53-2.04,6.12v13.38h-7.45v-13.7c0-2.17.34-4.16,1.02-5.99.68-1.83,1.68-3.4,2.99-4.71,1.32-1.32,2.91-2.35,4.78-3.09,1.87-.74,4.01-1.12,6.43-1.12s4.51.37,6.4,1.12c1.89.74,3.48,1.77,4.78,3.09,1.3,1.32,2.28,2.89,2.96,4.71.68,1.83,1.02,3.82,1.02,5.99v13.7h-7.45v-13.38c0-2.59-.68-4.63-2.04-6.12-1.36-1.49-3.27-2.23-5.74-2.23s-4.31.74-5.67,2.23ZM198.91,49.2v21.92c0,2.59-.4,4.86-1.21,6.82-.81,1.96-1.91,3.59-3.31,4.91s-3.06,2.32-4.97,2.99c-1.91.68-3.97,1.02-6.18,1.02s-4.26-.34-6.15-1.02c-1.89-.68-3.54-1.66-4.94-2.93s-2.51-2.8-3.31-4.59c-.81-1.78-1.21-3.8-1.21-6.05s.36-4.14,1.08-5.92c.72-1.78,1.75-3.31,3.09-4.59,1.34-1.27,2.95-2.27,4.84-2.99s4-1.08,6.34-1.08c1.53,0,3.06.28,4.59.83,1.53.55,2.82,1.44,3.89,2.68v-11.98h7.45ZM175.85,75.54c.42.96,1,1.76,1.72,2.42.72.66,1.57,1.16,2.55,1.5.98.34,2.02.51,3.12.51s2.21-.19,3.19-.57c.98-.38,1.84-.9,2.58-1.56.74-.66,1.33-1.46,1.75-2.42.42-.96.64-2.01.64-3.15,0-1.27-.21-2.4-.64-3.38-.43-.98-1.01-1.78-1.75-2.42-.74-.64-1.6-1.11-2.58-1.43s-2.04-.48-3.19-.48-2.14.17-3.12.51c-.98.34-1.83.84-2.55,1.5-.72.66-1.3,1.46-1.72,2.42-.43.96-.64,2.05-.64,3.28s.21,2.33.64,3.28ZM204.24,62.93c.79-1.17,1.82-2.14,3.09-2.93,1.27-.79,2.71-1.37,4.3-1.75s3.2-.57,4.81-.57c2.42,0,4.81.32,7.17.96,2.36.64,4.41,1.66,6.15,3.06l-4.21,5.03c-1.23-.89-2.65-1.53-4.27-1.91-1.61-.38-3.25-.57-4.91-.57-.76,0-1.48.05-2.17.16-.68.11-1.3.27-1.85.48-.55.21-.99.49-1.3.83-.32.34-.48.74-.48,1.21,0,.64.32,1.07.96,1.31s1.42.35,2.36.35h5.67c1.61,0,3.09.14,4.43.41s2.49.74,3.47,1.4c.98.66,1.74,1.52,2.29,2.58s.83,2.38.83,3.95c0,1.66-.38,3.1-1.15,4.33-.77,1.23-1.79,2.26-3.09,3.09-1.3.83-2.81,1.45-4.56,1.88s-3.59.64-5.54.64c-2.68,0-5.32-.36-7.93-1.08-2.61-.72-5-2.08-7.17-4.08l4.78-5.16c1.36,1.23,2.91,2.17,4.65,2.8,1.74.64,3.61.96,5.61.96,1.87,0,3.47-.26,4.81-.8,1.34-.53,2.01-1.37,2.01-2.52,0-.64-.36-1.06-1.08-1.27-.72-.21-1.68-.32-2.87-.32h-4.4c-1.4,0-2.79-.1-4.17-.29s-2.62-.57-3.73-1.15-2-1.41-2.68-2.52c-.68-1.1-1.02-2.57-1.02-4.4,0-1.57.39-2.94,1.18-4.11ZM244.03,79.02c1.36.81,2.99,1.21,4.91,1.21,1.1,0,2.32-.18,3.66-.54,1.34-.36,2.69-1.16,4.05-2.39l4.84,4.84c-1.61,1.61-3.5,2.8-5.67,3.57s-4.52,1.15-7.07,1.15c-2.21,0-4.27-.34-6.18-1.02-1.91-.68-3.57-1.65-4.97-2.9-1.4-1.25-2.5-2.77-3.28-4.56s-1.18-3.78-1.18-5.99.38-4.22,1.15-6.02c.77-1.8,1.84-3.36,3.22-4.65s3.03-2.29,4.94-2.99,3.99-1.05,6.24-1.05c1.66,0,3.27.22,4.84.67,1.57.45,2.97,1.08,4.2,1.91,1.23.83,2.23,1.85,2.99,3.06s1.15,2.6,1.15,4.17-.29,2.88-.86,3.92c-.57,1.04-1.38,1.87-2.42,2.48-1.04.62-2.27,1.05-3.69,1.31-1.42.25-2.98.38-4.68.38h-8.98c.51,1.49,1.44,2.63,2.8,3.44ZM253.24,69.08c.74-.25,1.12-.79,1.12-1.59,0-.98-.56-1.75-1.69-2.32-1.12-.57-2.45-.86-3.98-.86-1.91,0-3.58.41-5,1.24-1.42.83-2.37,2.13-2.83,3.92h9.62c1.1,0,2.03-.13,2.77-.38ZM284.15,58.18c1.55.34,2.88.87,3.98,1.59l-2.99,6.31c-1.66-1.02-3.48-1.53-5.48-1.53-2.29,0-4.06.73-5.29,2.2-1.23,1.46-1.85,3.51-1.85,6.15v13.38h-7.45v-13.19c0-2.34.32-4.45.96-6.34.64-1.89,1.57-3.5,2.8-4.84,1.23-1.34,2.75-2.38,4.56-3.12,1.8-.74,3.88-1.12,6.21-1.12,1.49,0,3.01.17,4.56.51ZM308.33,84.88c-.68.43-1.4.79-2.17,1.08-.76.3-1.54.52-2.32.67-.79.15-1.52.22-2.2.22-2.29,0-4.39-.35-6.28-1.05s-3.52-1.7-4.87-2.99-2.41-2.83-3.15-4.62c-.74-1.78-1.12-3.76-1.12-5.93s.4-4.21,1.21-6.02,1.91-3.35,3.31-4.62c1.4-1.27,3.05-2.25,4.94-2.93,1.89-.68,3.94-1.02,6.15-1.02s4.41.34,6.34,1.02c1.93.68,3.59,1.68,4.97,2.99,1.38,1.32,2.45,2.95,3.22,4.9.76,1.96,1.15,4.21,1.15,6.75v12.93h-7.39v-2.93c-.51.59-1.1,1.1-1.78,1.53ZM294.44,75.54c.43.96,1,1.76,1.72,2.42.72.66,1.57,1.16,2.55,1.5.98.34,2.02.51,3.12.51s2.21-.16,3.19-.48c.98-.32,1.84-.8,2.58-1.43.74-.64,1.33-1.45,1.75-2.42.43-.98.64-2.1.64-3.38,0-1.15-.21-2.2-.64-3.15-.42-.96-1.01-1.76-1.75-2.42-.74-.66-1.6-1.18-2.58-1.56s-2.04-.57-3.19-.57-2.14.17-3.12.51c-.98.34-1.83.84-2.55,1.5-.72.66-1.3,1.46-1.72,2.42-.42.96-.64,2.05-.64,3.28s.21,2.33.64,3.28ZM31.68,77.28l.03-32.86c0-7.63,6.69-12.8,13.91-12.89,10.34-.13,17.6-8.8,17.71-18.66C63.42,5.2,70.21-.17,77.11,0c7.59.19,13.26,6.39,13.27,13.49.01,7.95-6.1,13.65-13.97,13.77-10.06.15-17.62,8.39-17.63,18.26l-.03,31.47c0,7.63-6.06,13.28-13.34,13.43-7.02.15-13.74-5.34-13.73-13.14ZM58.76,13C58.5,6.35,53.11.1,45.95.1H12.8C5.28.1-.12,6.83,0,13.89c.12,7.05,5.62,13.2,13.07,13.21l33.79.06c7.45-1.16,12.18-7.1,11.9-14.17Z"/>
  </g>
</svg>